<mxfile host="app.diagrams.net" modified="2023-08-16T03:39:04.418Z" agent="Mozilla/5.0 (Windows NT 10.0; Win64; x64) AppleWebKit/537.36 (KHTML, like Gecko) Chrome/115.0.0.0 Safari/537.36" etag="ofZHRwNzyuxDSxCGF0LH" version="21.6.7" type="github">
  <diagram name="第 1 页" id="BfoXBWILRWUiTi9KGCna">
    <mxGraphModel dx="1877" dy="630" grid="1" gridSize="10" guides="1" tooltips="1" connect="1" arrows="1" fold="1" page="1" pageScale="1" pageWidth="827" pageHeight="1169" math="0" shadow="0">
      <root>
        <mxCell id="0" />
        <mxCell id="1" parent="0" />
        <mxCell id="qt_Jid6uIY3iX1TQbwFm-16" value="" style="rounded=0;whiteSpace=wrap;html=1;" vertex="1" parent="1">
          <mxGeometry x="-50" y="90" width="780" height="400" as="geometry" />
        </mxCell>
        <mxCell id="qt_Jid6uIY3iX1TQbwFm-7" value="" style="rounded=0;whiteSpace=wrap;html=1;strokeColor=default;dashed=1;" vertex="1" parent="1">
          <mxGeometry x="310" y="150" width="380" height="300" as="geometry" />
        </mxCell>
        <mxCell id="qt_Jid6uIY3iX1TQbwFm-2" value="opf文件处理工具类" style="rounded=0;whiteSpace=wrap;html=1;fillColor=#d5e8d4;strokeColor=#82b366;" vertex="1" parent="1">
          <mxGeometry x="360" y="200" width="120" height="60" as="geometry" />
        </mxCell>
        <mxCell id="qt_Jid6uIY3iX1TQbwFm-3" value="线性化处理工具类&lt;br&gt;(调用c++)" style="rounded=0;whiteSpace=wrap;html=1;fillColor=#d5e8d4;strokeColor=#82b366;" vertex="1" parent="1">
          <mxGeometry x="540" y="200" width="120" height="60" as="geometry" />
        </mxCell>
        <mxCell id="qt_Jid6uIY3iX1TQbwFm-4" value="xml文件处理工具类" style="rounded=0;whiteSpace=wrap;html=1;fillColor=#d5e8d4;strokeColor=#82b366;" vertex="1" parent="1">
          <mxGeometry x="360" y="290" width="120" height="60" as="geometry" />
        </mxCell>
        <mxCell id="qt_Jid6uIY3iX1TQbwFm-5" value="epub文件处理工具类" style="rounded=0;whiteSpace=wrap;html=1;fillColor=#d5e8d4;strokeColor=#82b366;" vertex="1" parent="1">
          <mxGeometry x="540" y="290" width="120" height="60" as="geometry" />
        </mxCell>
        <mxCell id="qt_Jid6uIY3iX1TQbwFm-6" value="多线程上传" style="rounded=0;whiteSpace=wrap;html=1;fillColor=#e1d5e7;strokeColor=#9673a6;" vertex="1" parent="1">
          <mxGeometry x="360" y="380" width="300" height="40" as="geometry" />
        </mxCell>
        <mxCell id="qt_Jid6uIY3iX1TQbwFm-8" value="&lt;font style=&quot;font-size: 14px;&quot;&gt;数据处理和上传&lt;/font&gt;" style="text;html=1;align=center;verticalAlign=middle;resizable=0;points=[];autosize=1;strokeColor=none;fillColor=none;" vertex="1" parent="1">
          <mxGeometry x="305" y="150" width="120" height="30" as="geometry" />
        </mxCell>
        <mxCell id="qt_Jid6uIY3iX1TQbwFm-14" style="edgeStyle=orthogonalEdgeStyle;rounded=0;orthogonalLoop=1;jettySize=auto;html=1;" edge="1" parent="1" source="qt_Jid6uIY3iX1TQbwFm-9" target="qt_Jid6uIY3iX1TQbwFm-7">
          <mxGeometry relative="1" as="geometry" />
        </mxCell>
        <mxCell id="qt_Jid6uIY3iX1TQbwFm-15" value="任务分发" style="edgeLabel;html=1;align=center;verticalAlign=middle;resizable=0;points=[];" vertex="1" connectable="0" parent="qt_Jid6uIY3iX1TQbwFm-14">
          <mxGeometry x="-0.4111" y="2" relative="1" as="geometry">
            <mxPoint x="11" y="-8" as="offset" />
          </mxGeometry>
        </mxCell>
        <mxCell id="qt_Jid6uIY3iX1TQbwFm-9" value="批量操作框架" style="shape=cube;whiteSpace=wrap;html=1;boundedLbl=1;backgroundOutline=1;darkOpacity=0.05;darkOpacity2=0.1;fillColor=#f8cecc;strokeColor=#b85450;" vertex="1" parent="1">
          <mxGeometry x="80" y="260" width="130" height="80" as="geometry" />
        </mxCell>
        <mxCell id="qt_Jid6uIY3iX1TQbwFm-12" style="edgeStyle=orthogonalEdgeStyle;rounded=0;orthogonalLoop=1;jettySize=auto;html=1;exitX=1;exitY=0.75;exitDx=0;exitDy=0;entryX=0;entryY=0;entryDx=0;entryDy=30;entryPerimeter=0;" edge="1" parent="1" source="qt_Jid6uIY3iX1TQbwFm-11" target="qt_Jid6uIY3iX1TQbwFm-9">
          <mxGeometry relative="1" as="geometry" />
        </mxCell>
        <mxCell id="qt_Jid6uIY3iX1TQbwFm-11" value="" style="shape=actor;whiteSpace=wrap;html=1;fillColor=#ffe6cc;strokeColor=#d79b00;" vertex="1" parent="1">
          <mxGeometry x="-30" y="270" width="40" height="60" as="geometry" />
        </mxCell>
        <mxCell id="qt_Jid6uIY3iX1TQbwFm-17" value="&lt;b&gt;&lt;font style=&quot;font-size: 14px;&quot;&gt;Java重写&lt;/font&gt;&lt;/b&gt;" style="text;html=1;align=center;verticalAlign=middle;resizable=0;points=[];autosize=1;strokeColor=none;fillColor=none;" vertex="1" parent="1">
          <mxGeometry x="-55" y="90" width="80" height="30" as="geometry" />
        </mxCell>
      </root>
    </mxGraphModel>
  </diagram>
</mxfile>
